<svg xmlns="http://www.w3.org/2000/svg" version="1.1" xmlns:xlink="http://www.w3.org/1999/xlink" xmlns:svgjs="http://svgjs.dev/svgjs" viewBox="0 0 800 800" opacity="0.29"><defs><linearGradient x1="50%" y1="0%" x2="50%" y2="100%" id="rrreflection-grad"><stop stop-color="#5bd8de" stop-opacity="1" offset="45%"></stop><stop stop-color="#5bd8de" stop-opacity="1" offset="100%"></stop></linearGradient><linearGradient x1="50%" y1="0%" x2="50%" y2="100%" id="rrreflection-grad-2"><stop stop-color="#5bd8de" stop-opacity="1" offset="0%"></stop><stop stop-color="#5bd8de" stop-opacity="1" offset="45%"></stop></linearGradient><linearGradient gradientTransform="rotate(270)" x1="50%" y1="0%" x2="50%" y2="100%" id="rrreflection-grad-3"><stop stop-color="#5bd8de" stop-opacity="1" offset="45%"></stop><stop stop-color="#5bd8de" stop-opacity="1" offset="100%"></stop></linearGradient><linearGradient gradientTransform="rotate(270)" x1="50%" y1="0%" x2="50%" y2="100%" id="rrreflection-grad-4"><stop stop-color="#5bd8de" stop-opacity="1" offset="0%"></stop><stop stop-color="#5bd8de" stop-opacity="1" offset="45%"></stop></linearGradient></defs><g stroke-width="0.5" stroke="url(#rrreflection-grad)" fill="none"><circle r="391" cx="50%" cy="0"></circle><circle r="379.5" cx="50%" cy="0"></circle><circle r="368" cx="50%" cy="0"></circle><circle r="356.5" cx="50%" cy="0"></circle><circle r="345" cx="50%" cy="0"></circle><circle r="333.5" cx="50%" cy="0"></circle><circle r="322" cx="50%" cy="0"></circle><circle r="310.5" cx="50%" cy="0"></circle><circle r="299" cx="50%" cy="0"></circle><circle r="287.5" cx="50%" cy="0"></circle><circle r="276" cx="50%" cy="0"></circle><circle r="264.5" cx="50%" cy="0"></circle><circle r="253" cx="50%" cy="0"></circle><circle r="241.5" cx="50%" cy="0"></circle><circle r="230" cx="50%" cy="0"></circle><circle r="218.5" cx="50%" cy="0"></circle><circle r="207" cx="50%" cy="0"></circle><circle r="195.5" cx="50%" cy="0"></circle><circle r="184" cx="50%" cy="0"></circle><circle r="172.5" cx="50%" cy="0"></circle><circle r="161" cx="50%" cy="0"></circle><circle r="149.5" cx="50%" cy="0"></circle><circle r="138" cx="50%" cy="0"></circle><circle r="126.5" cx="50%" cy="0"></circle><circle r="115" cx="50%" cy="0"></circle><circle r="103.5" cx="50%" cy="0"></circle><circle r="92" cx="50%" cy="0"></circle><circle r="80.5" cx="50%" cy="0"></circle><circle r="69" cx="50%" cy="0"></circle><circle r="57.5" cx="50%" cy="0"></circle><circle r="46" cx="50%" cy="0"></circle><circle r="34.5" cx="50%" cy="0"></circle><circle r="23" cx="50%" cy="0"></circle><circle r="11.5" cx="50%" cy="0"></circle></g><g stroke-width="0.5" stroke="url(#rrreflection-grad-2)" fill="none"><circle r="391" cx="50%" cy="100%"></circle><circle r="379.5" cx="50%" cy="100%"></circle><circle r="368" cx="50%" cy="100%"></circle><circle r="356.5" cx="50%" cy="100%"></circle><circle r="345" cx="50%" cy="100%"></circle><circle r="333.5" cx="50%" cy="100%"></circle><circle r="322" cx="50%" cy="100%"></circle><circle r="310.5" cx="50%" cy="100%"></circle><circle r="299" cx="50%" cy="100%"></circle><circle r="287.5" cx="50%" cy="100%"></circle><circle r="276" cx="50%" cy="100%"></circle><circle r="264.5" cx="50%" cy="100%"></circle><circle r="253" cx="50%" cy="100%"></circle><circle r="241.5" cx="50%" cy="100%"></circle><circle r="230" cx="50%" cy="100%"></circle><circle r="218.5" cx="50%" cy="100%"></circle><circle r="207" cx="50%" cy="100%"></circle><circle r="195.5" cx="50%" cy="100%"></circle><circle r="184" cx="50%" cy="100%"></circle><circle r="172.5" cx="50%" cy="100%"></circle><circle r="161" cx="50%" cy="100%"></circle><circle r="149.5" cx="50%" cy="100%"></circle><circle r="138" cx="50%" cy="100%"></circle><circle r="126.5" cx="50%" cy="100%"></circle><circle r="115" cx="50%" cy="100%"></circle><circle r="103.5" cx="50%" cy="100%"></circle><circle r="92" cx="50%" cy="100%"></circle><circle r="80.5" cx="50%" cy="100%"></circle><circle r="69" cx="50%" cy="100%"></circle><circle r="57.5" cx="50%" cy="100%"></circle><circle r="46" cx="50%" cy="100%"></circle><circle r="34.5" cx="50%" cy="100%"></circle><circle r="23" cx="50%" cy="100%"></circle><circle r="11.5" cx="50%" cy="100%"></circle></g><g stroke-width="0.5" stroke="url(#rrreflection-grad-3)" fill="none"><circle r="391" cx="0" cy="50%"></circle><circle r="379.5" cx="0" cy="50%"></circle><circle r="368" cx="0" cy="50%"></circle><circle r="356.5" cx="0" cy="50%"></circle><circle r="345" cx="0" cy="50%"></circle><circle r="333.5" cx="0" cy="50%"></circle><circle r="322" cx="0" cy="50%"></circle><circle r="310.5" cx="0" cy="50%"></circle><circle r="299" cx="0" cy="50%"></circle><circle r="287.5" cx="0" cy="50%"></circle><circle r="276" cx="0" cy="50%"></circle><circle r="264.5" cx="0" cy="50%"></circle><circle r="253" cx="0" cy="50%"></circle><circle r="241.5" cx="0" cy="50%"></circle><circle r="230" cx="0" cy="50%"></circle><circle r="218.5" cx="0" cy="50%"></circle><circle r="207" cx="0" cy="50%"></circle><circle r="195.5" cx="0" cy="50%"></circle><circle r="184" cx="0" cy="50%"></circle><circle r="172.5" cx="0" cy="50%"></circle><circle r="161" cx="0" cy="50%"></circle><circle r="149.5" cx="0" cy="50%"></circle><circle r="138" cx="0" cy="50%"></circle><circle r="126.5" cx="0" cy="50%"></circle><circle r="115" cx="0" cy="50%"></circle><circle r="103.5" cx="0" cy="50%"></circle><circle r="92" cx="0" cy="50%"></circle><circle r="80.5" cx="0" cy="50%"></circle><circle r="69" cx="0" cy="50%"></circle><circle r="57.5" cx="0" cy="50%"></circle><circle r="46" cx="0" cy="50%"></circle><circle r="34.5" cx="0" cy="50%"></circle><circle r="23" cx="0" cy="50%"></circle><circle r="11.5" cx="0" cy="50%"></circle></g><g stroke-width="0.5" stroke="url(#rrreflection-grad-4)" fill="none"><circle r="391" cx="100%" cy="50%"></circle><circle r="379.5" cx="100%" cy="50%"></circle><circle r="368" cx="100%" cy="50%"></circle><circle r="356.5" cx="100%" cy="50%"></circle><circle r="345" cx="100%" cy="50%"></circle><circle r="333.5" cx="100%" cy="50%"></circle><circle r="322" cx="100%" cy="50%"></circle><circle r="310.5" cx="100%" cy="50%"></circle><circle r="299" cx="100%" cy="50%"></circle><circle r="287.5" cx="100%" cy="50%"></circle><circle r="276" cx="100%" cy="50%"></circle><circle r="264.5" cx="100%" cy="50%"></circle><circle r="253" cx="100%" cy="50%"></circle><circle r="241.5" cx="100%" cy="50%"></circle><circle r="230" cx="100%" cy="50%"></circle><circle r="218.5" cx="100%" cy="50%"></circle><circle r="207" cx="100%" cy="50%"></circle><circle r="195.5" cx="100%" cy="50%"></circle><circle r="184" cx="100%" cy="50%"></circle><circle r="172.5" cx="100%" cy="50%"></circle><circle r="161" cx="100%" cy="50%"></circle><circle r="149.5" cx="100%" cy="50%"></circle><circle r="138" cx="100%" cy="50%"></circle><circle r="126.5" cx="100%" cy="50%"></circle><circle r="115" cx="100%" cy="50%"></circle><circle r="103.5" cx="100%" cy="50%"></circle><circle r="92" cx="100%" cy="50%"></circle><circle r="80.5" cx="100%" cy="50%"></circle><circle r="69" cx="100%" cy="50%"></circle><circle r="57.5" cx="100%" cy="50%"></circle><circle r="46" cx="100%" cy="50%"></circle><circle r="34.5" cx="100%" cy="50%"></circle><circle r="23" cx="100%" cy="50%"></circle><circle r="11.5" cx="100%" cy="50%"></circle></g></svg>